<?xml version="1.0" encoding="utf-8"?>
<!-- Generator: Adobe Illustrator 27.5.0, SVG Export Plug-In . SVG Version: 6.00 Build 0)  -->
<svg version="1.1" id="Layer_1" xmlns="http://www.w3.org/2000/svg" xmlns:xlink="http://www.w3.org/1999/xlink" x="0px" y="0px"
	 viewBox="0 0 288 288" style="enable-background:new 0 0 288 288;" xml:space="preserve">
<g>
	<rect y="0" width="288" height="288"/>
	<g>
		<radialGradient id="SVGID_1_" cx="142.8661" cy="102.5118" r="254.0752" gradientUnits="userSpaceOnUse">
			<stop  offset="0.0594" style="stop-color:#ECECEC"/>
			<stop  offset="0.0694" style="stop-color:#E6E6E6"/>
			<stop  offset="0.1684" style="stop-color:#B1B1B1"/>
			<stop  offset="0.2711" style="stop-color:#828282"/>
			<stop  offset="0.3756" style="stop-color:#5A5A5A"/>
			<stop  offset="0.4823" style="stop-color:#393939"/>
			<stop  offset="0.592" style="stop-color:#202020"/>
			<stop  offset="0.7057" style="stop-color:#0E0E0E"/>
			<stop  offset="0.8262" style="stop-color:#030303"/>
			<stop  offset="0.9648" style="stop-color:#000000"/>
		</radialGradient>
		<polygon style="fill:url(#SVGID_1_);" points="88.894,228.755 193.992,222.391 206.085,241.657 223.473,141.84 66.776,153.127 		
			"/>
		
			<radialGradient id="SVGID_00000111871306773901185610000012909789334170982311_" cx="142.8658" cy="102.5118" r="254.0749" gradientUnits="userSpaceOnUse">
			<stop  offset="0.0594" style="stop-color:#ECECEC"/>
			<stop  offset="0.0694" style="stop-color:#E6E6E6"/>
			<stop  offset="0.1684" style="stop-color:#B1B1B1"/>
			<stop  offset="0.2711" style="stop-color:#828282"/>
			<stop  offset="0.3756" style="stop-color:#5A5A5A"/>
			<stop  offset="0.4823" style="stop-color:#393939"/>
			<stop  offset="0.592" style="stop-color:#202020"/>
			<stop  offset="0.7057" style="stop-color:#0E0E0E"/>
			<stop  offset="0.8262" style="stop-color:#030303"/>
			<stop  offset="0.9648" style="stop-color:#000000"/>
		</radialGradient>
		<path style="fill:url(#SVGID_00000111871306773901185610000012909789334170982311_);" d="M68.065,146.032
			c2.092,1.748,4.805,2.511,8.139,2.289c3.758-0.25,6.684-1.301,8.777-3.152c2.092-1.851,3.138-4.602,3.138-8.254v-7.926
			l-9.468,0.631v7.215c0,1.194-0.222,2.038-0.665,2.532c-0.443,0.495-0.966,0.763-1.57,0.802c-0.656,0.044-1.184-0.237-1.582-0.842
			c-0.398-0.605-0.598-1.338-0.598-2.198v-19.828c0-0.983,0.142-1.761,0.426-2.333c0.283-0.571,0.868-0.887,1.755-0.946
			c1.49-0.099,2.234,1.107,2.234,3.617v4.872l9.256-0.616v-7.399c0-1.633-0.301-3.056-0.904-4.271
			c-0.603-1.215-1.432-2.174-2.487-2.876c-1.055-0.702-2.265-1.205-3.63-1.509c-1.366-0.304-2.855-0.403-4.469-0.295
			c-3.954,0.263-6.858,1.488-8.71,3.674c-1.853,2.186-2.779,5.359-2.779,9.519v19.46C64.926,141.673,65.972,144.285,68.065,146.032z
			"/>
		
			<radialGradient id="SVGID_00000009586859607510028430000007427602069847839921_" cx="142.8661" cy="102.5118" r="254.0754" gradientUnits="userSpaceOnUse">
			<stop  offset="0.0594" style="stop-color:#ECECEC"/>
			<stop  offset="0.0694" style="stop-color:#E6E6E6"/>
			<stop  offset="0.1684" style="stop-color:#B1B1B1"/>
			<stop  offset="0.2711" style="stop-color:#828282"/>
			<stop  offset="0.3756" style="stop-color:#5A5A5A"/>
			<stop  offset="0.4823" style="stop-color:#393939"/>
			<stop  offset="0.592" style="stop-color:#202020"/>
			<stop  offset="0.7057" style="stop-color:#0E0E0E"/>
			<stop  offset="0.8262" style="stop-color:#030303"/>
			<stop  offset="0.9648" style="stop-color:#000000"/>
		</radialGradient>
		<path style="fill:url(#SVGID_00000009586859607510028430000007427602069847839921_);" d="M93.996,143.713
			c0.886,1.03,2.088,1.793,3.604,2.288c1.516,0.496,3.311,0.649,5.385,0.458c1.968-0.078,3.711-0.467,5.226-1.165
			c1.516-0.697,2.717-1.619,3.604-2.768c0.887-1.147,1.547-2.433,1.981-3.858c0.434-1.425,0.652-2.988,0.652-4.691v-19.986
			c0-3.493-0.953-6.138-2.859-7.934c-1.907-1.795-4.827-2.588-8.764-2.378c-3.83,0.308-6.698,1.486-8.604,3.535
			c-1.906,2.049-2.859,4.821-2.859,8.314v19.986c0,1.703,0.217,3.237,0.651,4.604C92.449,141.486,93.11,142.684,93.996,143.713z
			 M100.619,116.809c0-0.053,0-0.105,0-0.158c0-0.053,0-0.114,0-0.184c0-0.438,0-0.75,0-0.935c0-0.184,0.018-0.493,0.053-0.925
			c0.035-0.432,0.106-0.761,0.213-0.989c0.106-0.226,0.239-0.481,0.399-0.764c0.16-0.283,0.377-0.495,0.652-0.636
			c0.274-0.14,0.598-0.224,0.971-0.249c0.266-0.018,0.505-0.003,0.718,0.045c0.213,0.048,0.39,0.141,0.532,0.281
			c0.142,0.14,0.266,0.272,0.373,0.396c0.106,0.125,0.19,0.312,0.253,0.562c0.061,0.251,0.115,0.458,0.159,0.621
			c0.044,0.165,0.07,0.399,0.08,0.706c0.008,0.307,0.018,0.539,0.026,0.696c0.009,0.157,0.009,0.394,0,0.711
			c-0.009,0.317-0.013,0.528-0.013,0.633v16.853c0,0.053,0,0.123,0,0.21c0,0.387-0.005,0.69-0.013,0.909
			c-0.01,0.22-0.031,0.538-0.067,0.953c-0.036,0.415-0.098,0.748-0.186,0.999c-0.09,0.252-0.209,0.519-0.36,0.801
			c-0.15,0.282-0.355,0.498-0.612,0.647c-0.257,0.148-0.554,0.235-0.891,0.257c-0.372,0.025-0.696-0.028-0.971-0.159
			c-0.275-0.13-0.492-0.34-0.652-0.628c-0.159-0.288-0.288-0.564-0.386-0.83c-0.098-0.265-0.164-0.617-0.199-1.053
			c-0.036-0.436-0.058-0.768-0.067-0.996c-0.009-0.228-0.013-0.534-0.013-0.921V116.809z"/>
		
			<radialGradient id="SVGID_00000166660573275888824050000000453817173649829001_" cx="142.8661" cy="102.5119" r="254.0752" gradientUnits="userSpaceOnUse">
			<stop  offset="0.0594" style="stop-color:#ECECEC"/>
			<stop  offset="0.0694" style="stop-color:#E6E6E6"/>
			<stop  offset="0.1684" style="stop-color:#B1B1B1"/>
			<stop  offset="0.2711" style="stop-color:#828282"/>
			<stop  offset="0.3756" style="stop-color:#5A5A5A"/>
			<stop  offset="0.4823" style="stop-color:#393939"/>
			<stop  offset="0.592" style="stop-color:#202020"/>
			<stop  offset="0.7057" style="stop-color:#0E0E0E"/>
			<stop  offset="0.8262" style="stop-color:#030303"/>
			<stop  offset="0.9648" style="stop-color:#000000"/>
		</radialGradient>
		<polygon style="fill:url(#SVGID_00000166660573275888824050000000453817173649829001_);" points="127.508,114.176 
			132.667,144.088 141.072,143.528 145.913,112.95 145.913,143.206 155.008,142.6 155.008,100.654 140.62,101.612 136.71,123.754 
			132.774,102.134 118.518,103.083 118.518,145.03 127.508,144.431 		"/>
		
			<radialGradient id="SVGID_00000116194148840660311960000003478959717219425942_" cx="142.866" cy="102.5118" r="254.0756" gradientUnits="userSpaceOnUse">
			<stop  offset="0.0594" style="stop-color:#ECECEC"/>
			<stop  offset="0.0694" style="stop-color:#E6E6E6"/>
			<stop  offset="0.1684" style="stop-color:#B1B1B1"/>
			<stop  offset="0.2711" style="stop-color:#828282"/>
			<stop  offset="0.3756" style="stop-color:#5A5A5A"/>
			<stop  offset="0.4823" style="stop-color:#393939"/>
			<stop  offset="0.592" style="stop-color:#202020"/>
			<stop  offset="0.7057" style="stop-color:#0E0E0E"/>
			<stop  offset="0.8262" style="stop-color:#030303"/>
			<stop  offset="0.9648" style="stop-color:#000000"/>
		</radialGradient>
		<polygon style="fill:url(#SVGID_00000116194148840660311960000003478959717219425942_);" points="168.679,99.743 159.636,100.345 
			159.636,142.292 168.679,141.69 		"/>
		
			<radialGradient id="SVGID_00000146493373372881702720000017986840538585597624_" cx="142.8661" cy="102.5118" r="254.0753" gradientUnits="userSpaceOnUse">
			<stop  offset="0.0594" style="stop-color:#ECECEC"/>
			<stop  offset="0.0694" style="stop-color:#E6E6E6"/>
			<stop  offset="0.1684" style="stop-color:#B1B1B1"/>
			<stop  offset="0.2711" style="stop-color:#828282"/>
			<stop  offset="0.3756" style="stop-color:#5A5A5A"/>
			<stop  offset="0.4823" style="stop-color:#393939"/>
			<stop  offset="0.592" style="stop-color:#202020"/>
			<stop  offset="0.7057" style="stop-color:#0E0E0E"/>
			<stop  offset="0.8262" style="stop-color:#030303"/>
			<stop  offset="0.9648" style="stop-color:#000000"/>
		</radialGradient>
		<polygon style="fill:url(#SVGID_00000146493373372881702720000017986840538585597624_);" points="182.456,119.786 
			187.137,140.461 196.286,139.852 196.286,97.905 187.243,98.507 187.243,118.572 182.935,98.794 173.307,99.435 173.307,141.382 
			182.456,140.773 		"/>
		
			<radialGradient id="SVGID_00000160190951371169192750000002798278611341299638_" cx="142.866" cy="102.5118" r="254.076" gradientUnits="userSpaceOnUse">
			<stop  offset="0.0594" style="stop-color:#ECECEC"/>
			<stop  offset="0.0694" style="stop-color:#E6E6E6"/>
			<stop  offset="0.1684" style="stop-color:#B1B1B1"/>
			<stop  offset="0.2711" style="stop-color:#828282"/>
			<stop  offset="0.3756" style="stop-color:#5A5A5A"/>
			<stop  offset="0.4823" style="stop-color:#393939"/>
			<stop  offset="0.592" style="stop-color:#202020"/>
			<stop  offset="0.7057" style="stop-color:#0E0E0E"/>
			<stop  offset="0.8262" style="stop-color:#030303"/>
			<stop  offset="0.9648" style="stop-color:#000000"/>
		</radialGradient>
		<path style="fill:url(#SVGID_00000160190951371169192750000002798278611341299638_);" d="M210.462,139.382
			c3.475-0.231,6.046-1.745,7.713-4.542l1.596,3.449l3.644-0.243v-24.436l-11.33,0.755v7.242l2.5-0.166v4.845
			c0,1.633-0.156,2.824-0.465,3.573c-0.31,0.749-0.935,1.155-1.875,1.217c-0.568,0.038-1.033-0.058-1.396-0.289
			c-0.363-0.23-0.625-0.585-0.784-1.067c-0.16-0.48-0.262-0.93-0.306-1.349c-0.045-0.418-0.067-0.934-0.067-1.549V110.6
			c0-1.053,0.008-1.826,0.027-2.319c0.017-0.493,0.071-1.018,0.159-1.578c0.089-0.559,0.226-0.95,0.413-1.172
			c0.186-0.223,0.443-0.416,0.771-0.578c0.328-0.163,0.758-0.262,1.29-0.297c0.266-0.018,0.505-0.002,0.718,0.044
			c0.213,0.048,0.447,0.155,0.705,0.322c0.257,0.167,0.456,0.465,0.598,0.895c0.142,0.43,0.213,0.978,0.213,1.645v3.318l8.936-0.595
			c0-1.141-0.023-2.131-0.066-2.971c-0.044-0.839-0.129-1.742-0.253-2.708c-0.125-0.966-0.306-1.787-0.545-2.465
			c-0.239-0.677-0.55-1.359-0.931-2.045c-0.382-0.686-0.865-1.25-1.449-1.694c-0.585-0.444-1.264-0.833-2.035-1.168
			c-0.771-0.335-1.689-0.559-2.753-0.673c-1.064-0.113-2.252-0.127-3.564-0.04c-1.064,0.071-2.053,0.203-2.966,0.395
			c-0.913,0.193-1.929,0.563-3.046,1.112c-1.117,0.548-2.061,1.248-2.832,2.098c-0.772,0.85-1.423,2.03-1.955,3.54
			c-0.532,1.509-0.798,3.257-0.798,5.24v18.169C200.329,135.73,203.706,139.832,210.462,139.382z"/>
	</g>
	<g>
		<path d="M93.695,215.91c-5.774,0.384-9.891-0.648-12.354-3.097c-2.463-2.448-3.693-6.403-3.693-11.862v-5.459l12.3-0.819v5.004
			c0,3.593,0.99,5.323,2.969,5.191c0.919-0.061,1.644-0.459,2.174-1.194c0.531-0.735,0.795-1.674,0.795-2.818
			c0-1.493-0.207-2.739-0.618-3.738c-0.413-0.999-1.038-1.931-1.873-2.798c-0.837-0.865-2.21-2.051-4.118-3.558l-5.267-4.163
			c-4.241-3.334-6.362-7.276-6.362-11.825c0-4.946,1.277-8.711,3.835-11.297c2.556-2.585,6.073-4.026,10.551-4.324
			c0.118-0.008,0.224-0.015,0.318-0.021c0.094-0.006,0.719-0.048,1.874-0.124c1.154-0.077,2.638,0.087,4.453,0.491
			c1.814,0.404,3.429,1.171,4.842,2.302c1.414,1.131,2.475,2.764,3.181,4.898c0.707,2.134,1.06,4.776,1.06,7.926l-12.618,0.84
			l-0.071-3.355c-0.024-0.628-0.295-1.17-0.814-1.625c-0.518-0.455-1.095-0.662-1.731-0.619c-0.826,0.055-1.526,0.352-2.103,0.893
			c-0.578,0.541-0.867,1.206-0.867,1.999c0,1.587,1.167,3.236,3.499,4.946l7.529,5.518c1.225,0.899,2.291,1.825,3.198,2.779
			c0.907,0.955,1.626,1.91,2.156,2.866c0.53,0.956,0.96,1.825,1.29,2.608c0.33,0.783,0.559,1.643,0.689,2.579
			c0.13,0.936,0.207,1.643,0.23,2.119c0.023,0.477,0.035,1.1,0.035,1.87c0,1.96-0.129,3.747-0.389,5.363
			c-0.26,1.615-0.719,3.186-1.378,4.711c-0.66,1.526-1.526,2.82-2.598,3.882c-1.073,1.063-2.463,1.943-4.171,2.64
			C97.942,215.335,95.957,215.76,93.695,215.91z"/>
		<path d="M111.899,199.02v-26.56c0-4.643,1.266-8.326,3.799-11.049c2.534-2.723,6.345-4.289,11.435-4.698
			c5.232-0.278,9.113,0.776,11.647,3.162c2.533,2.386,3.799,5.9,3.799,10.543v26.561c0,2.264-0.289,4.342-0.866,6.235
			c-0.578,1.893-1.456,3.602-2.634,5.126c-1.178,1.526-2.774,2.752-4.789,3.679c-2.015,0.927-4.33,1.443-6.946,1.547
			c-2.757,0.254-5.143,0.051-7.158-0.608s-3.611-1.672-4.789-3.041c-1.179-1.367-2.057-2.96-2.633-4.776
			C112.186,203.323,111.899,201.283,111.899,199.02z M127.239,202.653c0.447-0.03,0.842-0.144,1.184-0.341
			c0.341-0.198,0.612-0.484,0.813-0.86c0.2-0.374,0.359-0.729,0.477-1.064c0.117-0.334,0.199-0.777,0.247-1.329
			c0.047-0.551,0.077-0.973,0.089-1.266c0.011-0.292,0.018-0.696,0.018-1.209c0-0.117,0-0.21,0-0.28v-22.397
			c0-0.14,0.005-0.42,0.018-0.841c0.011-0.421,0.011-0.735,0-0.945c-0.012-0.209-0.024-0.518-0.035-0.925
			c-0.012-0.407-0.048-0.72-0.107-0.938c-0.059-0.217-0.13-0.493-0.212-0.826c-0.083-0.332-0.194-0.582-0.336-0.747
			c-0.141-0.166-0.306-0.341-0.494-0.527c-0.189-0.185-0.425-0.31-0.707-0.373c-0.283-0.063-0.601-0.082-0.954-0.059
			c-0.495,0.033-0.926,0.144-1.29,0.331c-0.366,0.188-0.654,0.47-0.866,0.846c-0.212,0.376-0.389,0.714-0.53,1.015
			c-0.142,0.301-0.236,0.739-0.283,1.314c-0.048,0.575-0.071,0.984-0.071,1.229c0,0.245,0,0.66,0,1.242c0,0.094,0,0.175,0,0.245
			c0,0.07,0,0.14,0,0.21v22.397c0,0.513,0.006,0.922,0.018,1.224c0.011,0.303,0.041,0.744,0.089,1.324
			c0.047,0.581,0.135,1.047,0.265,1.4c0.129,0.354,0.301,0.721,0.513,1.104c0.212,0.383,0.5,0.661,0.866,0.835
			C126.313,202.616,126.744,202.686,127.239,202.653z"/>
		<path d="M147.245,196.667v-26.561c0-4.642,1.266-8.326,3.799-11.049c2.533-2.723,6.345-4.289,11.435-4.698
			c5.231-0.278,9.113,0.776,11.647,3.161c2.533,2.387,3.799,5.901,3.799,10.544v26.561c0,2.264-0.289,4.342-0.866,6.234
			c-0.578,1.893-1.455,3.603-2.633,5.127c-1.178,1.525-2.775,2.752-4.79,3.679c-2.015,0.927-4.33,1.443-6.946,1.547
			c-2.757,0.254-5.143,0.051-7.157-0.608c-2.015-0.659-3.612-1.672-4.79-3.041c-1.179-1.368-2.056-2.96-2.633-4.776
			C147.534,200.97,147.245,198.93,147.245,196.667z M162.586,200.3c0.447-0.03,0.842-0.144,1.184-0.341
			c0.341-0.198,0.612-0.484,0.813-0.86c0.2-0.375,0.359-0.729,0.477-1.064c0.118-0.334,0.2-0.777,0.247-1.329
			c0.047-0.551,0.077-0.973,0.089-1.266c0.012-0.292,0.018-0.695,0.018-1.209c0-0.116,0-0.21,0-0.28v-22.397
			c0-0.14,0.005-0.42,0.018-0.841c0.011-0.421,0.011-0.736,0-0.945c-0.013-0.209-0.024-0.518-0.036-0.926
			c-0.012-0.407-0.048-0.72-0.106-0.938c-0.059-0.218-0.13-0.492-0.212-0.826c-0.082-0.332-0.194-0.582-0.335-0.747
			c-0.141-0.166-0.307-0.341-0.494-0.527c-0.19-0.185-0.425-0.31-0.707-0.373c-0.283-0.063-0.601-0.082-0.954-0.058
			c-0.495,0.033-0.925,0.144-1.29,0.331c-0.366,0.188-0.654,0.469-0.866,0.845c-0.212,0.377-0.389,0.714-0.53,1.015
			c-0.142,0.301-0.236,0.739-0.283,1.314c-0.047,0.575-0.07,0.984-0.07,1.229c0,0.245,0,0.66,0,1.242c0,0.094,0,0.175,0,0.245
			c0,0.07,0,0.14,0,0.21v22.397c0,0.513,0.006,0.921,0.018,1.224c0.011,0.302,0.041,0.744,0.088,1.324
			c0.047,0.581,0.135,1.047,0.265,1.4c0.129,0.353,0.301,0.721,0.513,1.104c0.212,0.382,0.5,0.661,0.866,0.835
			C161.661,200.263,162.091,200.333,162.586,200.3z"/>
		<path d="M213.873,151.531v55.747l-12.159,0.809l-6.221-27.477v27.891l-12.159,0.81v-55.747l12.795-0.852l5.726,26.285v-26.666
			L213.873,151.531z"/>
	</g>
	<g>
		<g>
			
				<linearGradient id="SVGID_00000062156772206043476440000017104259225593828494_" gradientUnits="userSpaceOnUse" x1="247.2536" y1="-492.1765" x2="265.0177" y2="-492.1765" gradientTransform="matrix(1 0 0 1 -113.1877 523.2782)">
				<stop  offset="0" style="stop-color:#020202"/>
				<stop  offset="0.1218" style="stop-color:#666666"/>
				<stop  offset="0.2057" style="stop-color:#484848"/>
				<stop  offset="0.3496" style="stop-color:#171717"/>
				<stop  offset="0.3527" style="stop-color:#181818"/>
				<stop  offset="0.5257" style="stop-color:#3D3D3D"/>
				<stop  offset="0.6649" style="stop-color:#555555"/>
				<stop  offset="0.7522" style="stop-color:#5D5D5D"/>
				<stop  offset="1" style="stop-color:#0E0E0E"/>
			</linearGradient>
			<path style="fill:url(#SVGID_00000062156772206043476440000017104259225593828494_);" d="M142.948,20.874
				c-4.905,0-8.882,1.326-8.882,2.961v17.495h17.764V23.835C151.83,22.2,147.853,20.874,142.948,20.874z"/>
			
				<linearGradient id="SVGID_00000052079524640312087590000009809241861221423280_" gradientUnits="userSpaceOnUse" x1="243.7007" y1="-482.4375" x2="268.5705" y2="-482.4375" gradientTransform="matrix(1 0 0 1 -113.1877 523.2782)">
				<stop  offset="0" style="stop-color:#020202"/>
				<stop  offset="0.1218" style="stop-color:#666666"/>
				<stop  offset="0.2057" style="stop-color:#484848"/>
				<stop  offset="0.3496" style="stop-color:#171717"/>
				<stop  offset="0.3527" style="stop-color:#181818"/>
				<stop  offset="0.5257" style="stop-color:#3D3D3D"/>
				<stop  offset="0.6649" style="stop-color:#555555"/>
				<stop  offset="0.7522" style="stop-color:#5D5D5D"/>
				<stop  offset="1" style="stop-color:#0E0E0E"/>
			</linearGradient>
			<path style="fill:url(#SVGID_00000052079524640312087590000009809241861221423280_);" d="M142.948,24.446
				c-6.868,0-12.435,1.856-12.435,4.145v28.644h24.87V28.591C155.383,26.302,149.816,24.446,142.948,24.446z"/>
		</g>
		<g>
			
				<radialGradient id="SVGID_00000031926422751578207590000002762232425983722124_" cx="7.9157" cy="-565.8259" r="104.6739" fx="8.402" fy="-667.9468" gradientTransform="matrix(1.2437 0 0 0.8479 133.0213 621.6507)" gradientUnits="userSpaceOnUse">
				<stop  offset="0" style="stop-color:#ECECEC"/>
				<stop  offset="0.2642" style="stop-color:#9D9D9D"/>
				<stop  offset="0.5128" style="stop-color:#5A5A5A"/>
				<stop  offset="0.7194" style="stop-color:#292929"/>
				<stop  offset="0.8762" style="stop-color:#0B0B0B"/>
				<stop  offset="0.9648" style="stop-color:#000000"/>
			</radialGradient>
			
				<ellipse style="opacity:0.2;fill:url(#SVGID_00000031926422751578207590000002762232425983722124_);" cx="142.866" cy="141.887" rx="130.186" ry="88.751"/>
			
				<radialGradient id="SVGID_00000132806807648963009880000015776013444557093771_" cx="7.9157" cy="-612.5506" r="57.9481" fx="8.1849" fy="-669.0853" gradientTransform="matrix(1.2437 0 0 0.8479 133.0213 621.6507)" gradientUnits="userSpaceOnUse">
				<stop  offset="0.0594" style="stop-color:#ECECEC"/>
				<stop  offset="0.0694" style="stop-color:#E6E6E6"/>
				<stop  offset="0.1684" style="stop-color:#B1B1B1"/>
				<stop  offset="0.2711" style="stop-color:#828282"/>
				<stop  offset="0.3756" style="stop-color:#5A5A5A"/>
				<stop  offset="0.4823" style="stop-color:#393939"/>
				<stop  offset="0.592" style="stop-color:#202020"/>
				<stop  offset="0.7057" style="stop-color:#0E0E0E"/>
				<stop  offset="0.8262" style="stop-color:#030303"/>
				<stop  offset="0.9648" style="stop-color:#000000"/>
			</radialGradient>
			
				<ellipse style="opacity:0.6;fill:url(#SVGID_00000132806807648963009880000015776013444557093771_);" cx="142.866" cy="102.269" rx="72.072" ry="49.133"/>
		</g>
		<path style="fill:#FFFFFF;" d="M142.948,59.958c6.868,0,12.435-1.219,12.435-2.723s-5.567-2.723-12.435-2.723
			s-12.435,1.219-12.435,2.723S136.08,59.958,142.948,59.958z"/>
	</g>
</g>
</svg>
